<svg width="221" height="38" viewBox="0 0 221 38" fill="none" xmlns="http://www.w3.org/2000/svg">
<path d="M83.848 0C92.1322 0.000140769 98.848 6.71584 98.848 15C98.848 23.2841 92.1322 29.9999 83.848 30C75.5637 30 68.848 23.2842 68.848 15C68.848 6.71576 75.5637 0 83.848 0ZM89.6537 5.02832C84.8862 3.97061 83.5001 6.42559 70.9476 15.8281C73.0042 16.901 74.1609 17.8514 76.2728 25.0508L94.9789 14.251C92.3777 11.9242 94.4212 6.08614 89.6537 5.02832Z" fill="white"/>
<path d="M16.416 9.912C15.408 9.36 14.376 8.904 13.32 8.544C12.288 8.184 11.316 8.004 10.404 8.004C9.276 8.004 8.388 8.232 7.74 8.688C7.092 9.144 6.768 9.828 6.768 10.74C6.768 11.364 7.008 11.928 7.488 12.432C7.992 12.912 8.628 13.344 9.396 13.728C10.188 14.112 11.004 14.46 11.844 14.772C12.612 15.06 13.368 15.408 14.112 15.816C14.88 16.2 15.564 16.692 16.164 17.292C16.764 17.868 17.244 18.6 17.604 19.488C17.964 20.352 18.144 21.42 18.144 22.692C18.144 24.036 17.796 25.284 17.1 26.436C16.404 27.588 15.384 28.524 14.04 29.244C12.696 29.94 11.04 30.288 9.072 30.288C8.064 30.288 7.032 30.192 5.976 30C4.944 29.784 3.924 29.472 2.916 29.064C1.908 28.632 0.936 28.092 0 27.444L2.304 23.376C2.928 23.832 3.6 24.24 4.32 24.6C5.064 24.936 5.808 25.2 6.552 25.392C7.296 25.584 7.98 25.68 8.604 25.68C9.228 25.68 9.852 25.596 10.476 25.428C11.124 25.236 11.652 24.924 12.06 24.492C12.492 24.06 12.708 23.46 12.708 22.692C12.708 22.164 12.528 21.684 12.168 21.252C11.832 20.82 11.364 20.424 10.764 20.064C10.188 19.704 9.552 19.392 8.856 19.128C8.04 18.816 7.2 18.456 6.336 18.048C5.472 17.64 4.656 17.148 3.888 16.572C3.144 15.972 2.532 15.24 2.052 14.376C1.596 13.488 1.368 12.408 1.368 11.136C1.368 9.6 1.704 8.268 2.376 7.14C3.072 6.012 4.044 5.124 5.292 4.476C6.54 3.804 7.98 3.432 9.612 3.36C11.748 3.36 13.476 3.612 14.796 4.116C16.14 4.62 17.34 5.22 18.396 5.916L16.416 9.912Z" fill="white"/>
<path d="M22.4283 30V1.596H27.4683V30H22.4283ZM31.4643 19.308L38.5923 30H32.7243L28.1523 22.188L31.4643 19.308ZM25.9563 25.644L25.4523 20.856L34.9563 13.872L38.0163 16.572L25.9563 25.644Z" fill="white"/>
<path d="M43.3406 37.56L53.8166 14.268H58.3526L48.2006 37.56H43.3406ZM47.5526 30.072L39.8486 14.268H45.5006L51.4406 27.552L47.5526 30.072Z" fill="white"/>
<path d="M117.874 3.504C120.058 3.504 121.906 3.876 123.418 4.62C124.93 5.34 126.082 6.372 126.874 7.716C127.666 9.036 128.062 10.608 128.062 12.432C128.062 13.512 127.894 14.604 127.558 15.708C127.246 16.788 126.73 17.772 126.01 18.66C125.314 19.548 124.366 20.268 123.166 20.82C121.99 21.348 120.538 21.612 118.81 21.612H115.066V30H109.846V3.504H117.874ZM118.774 16.536C119.566 16.536 120.226 16.404 120.754 16.14C121.282 15.852 121.69 15.504 121.978 15.096C122.29 14.664 122.506 14.22 122.626 13.764C122.77 13.308 122.842 12.912 122.842 12.576C122.842 12.312 122.794 11.964 122.698 11.532C122.626 11.076 122.458 10.62 122.194 10.164C121.93 9.708 121.522 9.324 120.97 9.012C120.442 8.7 119.722 8.544 118.81 8.544H115.066V16.536H118.774Z" fill="white"/>
<path d="M131.905 30V1.596H136.837V17.436L136.801 16.824C137.353 15.84 138.133 15.048 139.141 14.448C140.149 13.824 141.385 13.512 142.849 13.512C144.337 13.512 145.573 13.956 146.557 14.844C147.565 15.708 148.081 16.836 148.105 18.228V30H143.065V20.1C143.041 19.404 142.849 18.852 142.489 18.444C142.153 18.012 141.577 17.796 140.761 17.796C139.993 17.796 139.321 18.048 138.745 18.552C138.169 19.056 137.725 19.74 137.413 20.604C137.101 21.468 136.945 22.464 136.945 23.592V30H131.905Z" fill="white"/>
<path d="M152.056 21.936C152.056 20.328 152.428 18.888 153.172 17.616C153.94 16.344 155.008 15.348 156.376 14.628C157.744 13.884 159.316 13.512 161.092 13.512C162.892 13.512 164.452 13.884 165.772 14.628C167.092 15.348 168.1 16.344 168.796 17.616C169.516 18.888 169.876 20.328 169.876 21.936C169.876 23.544 169.516 24.996 168.796 26.292C168.1 27.564 167.092 28.572 165.772 29.316C164.452 30.06 162.868 30.432 161.02 30.432C159.292 30.432 157.744 30.096 156.376 29.424C155.032 28.752 153.976 27.78 153.208 26.508C152.44 25.236 152.056 23.712 152.056 21.936ZM157.132 21.972C157.132 22.788 157.3 23.532 157.636 24.204C157.972 24.852 158.428 25.368 159.004 25.752C159.58 26.136 160.228 26.328 160.948 26.328C161.74 26.328 162.424 26.136 163 25.752C163.576 25.368 164.02 24.852 164.332 24.204C164.644 23.532 164.8 22.788 164.8 21.972C164.8 21.132 164.644 20.388 164.332 19.74C164.02 19.092 163.576 18.576 163 18.192C162.424 17.808 161.74 17.616 160.948 17.616C160.228 17.616 159.58 17.808 159.004 18.192C158.428 18.576 157.972 19.092 157.636 19.74C157.3 20.388 157.132 21.132 157.132 21.972Z" fill="white"/>
<path d="M175.322 7.356H180.362V14.196H184.178V18.12H180.362V30H175.322V18.12H172.874V14.196H175.322V7.356Z" fill="white"/>
<path d="M186.79 21.936C186.79 20.328 187.162 18.888 187.906 17.616C188.674 16.344 189.742 15.348 191.11 14.628C192.478 13.884 194.05 13.512 195.826 13.512C197.626 13.512 199.186 13.884 200.506 14.628C201.826 15.348 202.834 16.344 203.53 17.616C204.25 18.888 204.61 20.328 204.61 21.936C204.61 23.544 204.25 24.996 203.53 26.292C202.834 27.564 201.826 28.572 200.506 29.316C199.186 30.06 197.602 30.432 195.754 30.432C194.026 30.432 192.478 30.096 191.11 29.424C189.766 28.752 188.71 27.78 187.942 26.508C187.174 25.236 186.79 23.712 186.79 21.936ZM191.866 21.972C191.866 22.788 192.034 23.532 192.37 24.204C192.706 24.852 193.162 25.368 193.738 25.752C194.314 26.136 194.962 26.328 195.682 26.328C196.474 26.328 197.158 26.136 197.734 25.752C198.31 25.368 198.754 24.852 199.066 24.204C199.378 23.532 199.534 22.788 199.534 21.972C199.534 21.132 199.378 20.388 199.066 19.74C198.754 19.092 198.31 18.576 197.734 18.192C197.158 17.808 196.474 17.616 195.682 17.616C194.962 17.616 194.314 17.808 193.738 18.192C193.162 18.576 192.706 19.092 192.37 19.74C192.034 20.388 191.866 21.132 191.866 21.972Z" fill="white"/>
<path d="M213.693 30.324C212.397 30.324 211.185 30.096 210.057 29.64C208.953 29.184 208.017 28.548 207.249 27.732L209.337 24.96C210.105 25.656 210.813 26.16 211.461 26.472C212.133 26.76 212.733 26.904 213.261 26.904C213.669 26.904 214.029 26.868 214.341 26.796C214.677 26.7 214.941 26.568 215.133 26.4C215.325 26.208 215.421 25.968 215.421 25.68C215.421 25.272 215.253 24.948 214.917 24.708C214.605 24.468 214.197 24.276 213.693 24.132C213.189 23.964 212.649 23.796 212.073 23.628C210.633 23.172 209.589 22.512 208.941 21.648C208.317 20.76 208.005 19.8 208.005 18.768C208.005 17.976 208.209 17.184 208.617 16.392C209.049 15.576 209.721 14.904 210.633 14.376C211.569 13.824 212.769 13.548 214.233 13.548C215.553 13.548 216.669 13.68 217.581 13.944C218.493 14.208 219.357 14.64 220.173 15.24L218.265 18.192C217.809 17.832 217.293 17.532 216.717 17.292C216.165 17.028 215.649 16.884 215.169 16.86C214.737 16.836 214.365 16.884 214.053 17.004C213.765 17.124 213.537 17.28 213.369 17.472C213.201 17.664 213.117 17.868 213.117 18.084C213.093 18.54 213.261 18.9 213.621 19.164C214.005 19.428 214.485 19.632 215.061 19.776C215.637 19.92 216.201 20.088 216.753 20.28C217.521 20.52 218.181 20.844 218.733 21.252C219.285 21.66 219.705 22.152 219.993 22.728C220.305 23.28 220.461 23.952 220.461 24.744C220.461 25.704 220.209 26.616 219.705 27.48C219.225 28.32 218.481 29.004 217.473 29.532C216.489 30.06 215.229 30.324 213.693 30.324Z" fill="white"/>
</svg>
